<svg width="80" height="18" viewBox="0 0 80 18" fill="none" xmlns="http://www.w3.org/2000/svg">
<path d="M7.05544 2.71739C7.36673 1.82183 8.63327 1.82183 8.94456 2.71739L9.65244 4.75386C9.78977 5.14893 10.1585 5.4168 10.5766 5.42532L12.7322 5.46925C13.6801 5.48857 14.0715 6.69311 13.3159 7.26592L11.5979 8.56845C11.2646 8.82114 11.1238 9.25456 11.2449 9.6549L11.8692 11.7185C12.1438 12.626 11.1191 13.3705 10.3409 12.8289L8.57118 11.5975C8.22786 11.3586 7.77214 11.3586 7.42882 11.5975L5.65913 12.8289C4.88088 13.3705 3.85624 12.626 4.13079 11.7185L4.75511 9.6549C4.87623 9.25456 4.7354 8.82114 4.40211 8.56845L2.68405 7.26592C1.92852 6.69311 2.3199 5.48857 3.26782 5.46925L5.42337 5.42532C5.84154 5.4168 6.21023 5.14893 6.34756 4.75386L7.05544 2.71739Z" fill="#F0C24D"/>
<path d="M23.0554 2.71739C23.3667 1.82183 24.6333 1.82183 24.9446 2.71739L25.6524 4.75386C25.7898 5.14893 26.1585 5.4168 26.5766 5.42532L28.7322 5.46925C29.6801 5.48857 30.0715 6.69311 29.3159 7.26592L27.5979 8.56845C27.2646 8.82114 27.1238 9.25456 27.2449 9.6549L27.8692 11.7185C28.1438 12.626 27.1191 13.3705 26.3409 12.8289L24.5712 11.5975C24.2279 11.3586 23.7721 11.3586 23.4288 11.5975L21.6591 12.8289C20.8809 13.3705 19.8562 12.626 20.1308 11.7185L20.7551 9.6549C20.8762 9.25456 20.7354 8.82114 20.4021 8.56845L18.6841 7.26592C17.9285 6.69311 18.3199 5.48857 19.2678 5.46925L21.4234 5.42532C21.8415 5.4168 22.2102 5.14893 22.3476 4.75386L23.0554 2.71739Z" fill="#F0C24D"/>
<path d="M39.0554 2.71739C39.3667 1.82183 40.6333 1.82183 40.9446 2.71739L41.6524 4.75386C41.7898 5.14893 42.1585 5.4168 42.5766 5.42532L44.7322 5.46925C45.6801 5.48857 46.0715 6.69311 45.3159 7.26592L43.5979 8.56845C43.2646 8.82114 43.1238 9.25456 43.2449 9.6549L43.8692 11.7185C44.1438 12.626 43.1191 13.3705 42.3409 12.8289L40.5712 11.5975C40.2279 11.3586 39.7721 11.3586 39.4288 11.5975L37.6591 12.8289C36.8809 13.3705 35.8562 12.626 36.1308 11.7185L36.7551 9.6549C36.8762 9.25456 36.7354 8.82114 36.4021 8.56845L34.6841 7.26592C33.9285 6.69311 34.3199 5.48857 35.2678 5.46925L37.4234 5.42532C37.8415 5.4168 38.2102 5.14893 38.3476 4.75386L39.0554 2.71739Z" fill="#F0C24D"/>
<path d="M55.0554 2.71739C55.3667 1.82183 56.6333 1.82183 56.9446 2.71739L57.6524 4.75386C57.7898 5.14893 58.1585 5.4168 58.5766 5.42532L60.7322 5.46925C61.6801 5.48857 62.0715 6.69311 61.3159 7.26592L59.5979 8.56845C59.2646 8.82114 59.1238 9.25456 59.2449 9.6549L59.8692 11.7185C60.1438 12.626 59.1191 13.3705 58.3409 12.8289L56.5712 11.5975C56.2279 11.3586 55.7721 11.3586 55.4288 11.5975L53.6591 12.8289C52.8809 13.3705 51.8562 12.626 52.1308 11.7185L52.7551 9.6549C52.8762 9.25456 52.7354 8.82114 52.4021 8.56845L50.6841 7.26592C49.9285 6.69311 50.3199 5.48857 51.2678 5.46925L53.4234 5.42532C53.8415 5.4168 54.2102 5.14893 54.3476 4.75386L55.0554 2.71739Z" fill="#F0C24D"/>
<path d="M71.0554 2.71739C71.3667 1.82183 72.6333 1.82183 72.9446 2.71739L73.6524 4.75386C73.7898 5.14893 74.1585 5.4168 74.5766 5.42532L76.7322 5.46925C77.6801 5.48857 78.0715 6.69311 77.3159 7.26592L75.5979 8.56845C75.2646 8.82114 75.1238 9.25456 75.2449 9.6549L75.8692 11.7185C76.1438 12.626 75.1191 13.3705 74.3409 12.8289L72.5712 11.5975C72.2279 11.3586 71.7721 11.3586 71.4288 11.5975L69.6591 12.8289C68.8809 13.3705 67.8562 12.626 68.1308 11.7185L68.7551 9.6549C68.8762 9.25456 68.7354 8.82114 68.4021 8.56845L66.6841 7.26592C65.9285 6.69311 66.3199 5.48857 67.2678 5.46925L69.4234 5.42532C69.8415 5.4168 70.2102 5.14893 70.3476 4.75386L71.0554 2.71739Z" fill="#F0C24D"/>
</svg>
